<svg xmlns="http://www.w3.org/2000/svg" viewBox="0 0 64 64" width="64" height="64" role="img" aria-label="Demo vault icon">
  <defs>
    <linearGradient id="gv" x1="0" x2="0" y1="0" y2="1">
      <stop offset="0%" stop-color="#fee2e2"/>
      <stop offset="100%" stop-color="#fecaca"/>
    </linearGradient>
  </defs>
  <rect x="2" y="2" width="60" height="60" rx="12" fill="url(#gv)" stroke="#b91c1c" stroke-width="1.5"/>
  <g stroke="#b91c1c" stroke-width="2" fill="none" stroke-linecap="round" stroke-linejoin="round">
    <path d="M14 22 h36 v22 a4 4 0 0 1 -4 4 H18 a4 4 0 0 1 -4 -4 z"/>
    <path d="M14 22 V18 a4 4 0 0 1 4 -4 h10 l4 4 h14 a4 4 0 0 1 4 4 v4"/>
    <line x1="22" y1="34" x2="42" y2="34"/>
    <line x1="22" y1="40" x2="36" y2="40"/>
  </g>
</svg>
