<?xml version="1.0" encoding="UTF-8" standalone="no"?>
<svg xmlns="http://www.w3.org/2000/svg" viewBox="-10 -10 169 189">
 <g transform="translate(-49.862 -90.708)">
  <g transform="matrix(1.3333 0 0 -1.3333 49.779 579.77)">
   <g fill-rule="evenodd" transform="scale(.1)">
    <g fill="#ed1c24">
     <path d="m214.23 3668-42.766-112.36h-105.49l91.711-57.43-53.871-120.65 116.05 77.92 99.336-73.84-47.031 120.8 90.457 52.52h-111.82zm-1.149-45.18 23.445-72.48 3.36-10.38h67.027l-42.277-24.55-11.11-6.44 4.665-11.97 28.117-72.22-57.5 42.74-8.504 6.32-8.801-5.91-72.703-48.82 32.582 72.98 5.316 11.91-11.054 6.92-47.453 29.72h53.273 10.344l3.675 9.66 27.598 72.52"/>
     <path d="m1119 2403.3-173.01 148.01c10.887 11.66 21.317 23.89 31.094 36.86 179.1 237.64 95.264 602.95-187.32 815.94-123.76 93.28-265.11 141.87-399.95 147.07 111.81-23.42 227.2-85.32 324.02-182.65 104.41-104.96 167.56-231.32 185.62-351.25 22.488-116.41 1.457-233.91-69.043-327.46-6.094-8.08-12.555-15.76-19.184-23.23l-291.62 249.48 123.86 139.02-152.77 61.11-88.672-99.54-39.824 34.06-54.766-61.45 38.438-35.64-122.25-137.22 115.51-102.92 120.18 134.92 270.59-250.99c-143.31-90.84-345.72-88.87-521.04 10.66-0.382 0.22-0.773 0.42-1.156 0.63-39.058 21.33-75.898 46.61-108.64 76.15l-29.464-80.1-68.856-187.4-0.12891-0.12 0.058594-0.07-0.058594-0.16 0.20312 0.01 71.965-76.58 0.3828 0.36c0.2617-0.28 0.4453-0.61 0.7226-0.88 14.461-14.47 37.898-14.47 52.34 0 14.477 14.45 14.477 37.88 0 52.34-0.316 0.32-0.691 0.53-1.015 0.83l-28.164 29.96 0.4219 0.03 64.394 105.61 11.047-7.7c224.42-152.01 497.66-163.83 685.52-42.7l179.22-166.23 81.35 91.33"/>
    </g>
   </g>
  </g>
 </g>
</svg>
