<svg xmlns="http://www.w3.org/2000/svg" width="264.567" height="318.552" viewBox="1110.4 -4.3 508.8 558.6">
  <path style="fill:#ffffff" d="m1599.01464,367.96985c-4.69098-3.59275-7.86039-8.74157-11.53345-13.22674-3.42081-4.18768-7.64306-6.30446-12.33404-9.26785-4.43957-2.80326-7.3802-3.43255-12.68908-3.67285-6.31591-.28605-11.07561,1.27003-17.05966,1.81928-4.87423.45763-7.62043,1.51026-11.76223,4.14193-5.26335,3.34099-6.888,8.73012-14.00478,8.38681.30895,4.46234-10.5267,8.34113-13.35252,11.44182-3.51272,3.83305-6.59064,13.42131-12.94077,13.00935.58354,3.93599-1.68205,4.4967-3.53562,6.86509-1.04111,1.32729-3.05488,3.7415-4.16484,5.98412-2.33404,4.70257-1.68191,9.6569-8.0435,10.60652-5.20609.77811-10.93845.82385-15.92707,2.29982-3.61566,1.06408-8.07785,8.46698-12.33432,5.65226-2.54005-1.67046-.92672-4.47372-1.71627-7.04813-.64067-2.12816-2.3913-4.06183-3.24944-5.97267-.66372-1.12128-1.39587-2.05951-2.20833-2.849-.77811-4.03893-1.52171-8.12367-4.18775-10.82392-1.70482-1.71627-4.11889-1.51033-5.14882-3.83305-.96107-2.1739.27459-6.38456.03436-8.78731-.44611-4.49663-1.71627-6.76209-5.09156-9.3594-1.29293-.98398-3.75295-1.77347-4.49656-3.2037-1.89952-3.64994,1.37296-8.83312,3.46677-11.56774,5.9955-7.86053,7.52867-21.71656,7.03675-31.88836-.51483-10.59507-2.20819-23.55867.05726-34.09662,1.20131-5.59507,4.47365-11.62486,8.23806-14.95447,3.78731-3.3639,6.46452-11.46466,11.45328-13.11228.30895-5.57216.96107-10.13751,3.03197-15.35498,1.3731-3.44393,5.03457-6.49895,6.19021-9.54244.81232-2.12816.02277-5.84675.14861-8.16948,6.16716.65219,5.06879-6.01841,7.29989-10.12599,3.1465-5.77818,3.39833-10.16034,4.72548-16.85385,1.29293-6.5104,1.77354-13.28394,3.02066-19.71424,1.16709-5.9726,4.71403-12.7233,6.93367-18.65016,2.00232-5.35476,6.4648-11.09858,7.01398-16.73939.51483-5.27466-1.33874-10.74389-.595-16.36179,1.70482-12.8034,2.44843-26.56795-12.83769-30.34374-4.17643-1.02979-6.21297-1.13273-10.00014.1373-2.66603.91533-6.41899,2.7689-7.09401-1.88793-2.76897-.27459-4.13048,3.24951-6.76216,4.15339-2.74593,7.88343-6.17847,15.93852-7.46009,24.14229-1.3386,8.45552-1.22421,16.33889-1.94505,25.2063-.98398-.48054-1.57898-.17159-2.59732-.45763.05726,2.67735,2.59732,3.05495,3.19231,4.97717.42334,1.41877-.56064,5.13737-1.07546,6.3731-1.95665,4.70257-8.15817,10.38919-12.79202,12.24276,3.92461,2.40275.60631,8.02073-3.19231,7.79188,4.54251,2.37992.53787,7.72323-1.99087,9.94295-4.48524,3.93599-2.72316,3.5813-1.29293,8.89025,1.20145,4.4967-.37767,7.99789-2.19674,12.09402-1.88807,4.25639-5.59521,5.78956-7.02544,9.56542-.77797,2.04806-.02291,3.91308-1.12128,6.00696-1.54462,2.91765-5.02284,5.76665-8.02073,7.00239-.70925,3.53548-1.89924,7.43718-2.83755,10.99558-.74361,2.849-2.79174,9.24501-6.39594,9.29075-.42334,5.74382,8.82174.76658,4.65676,7.40283-1.07546,1.71627-3.13505,2.71178-5.30888,2.96346-.00265.00035-.00531.00021-.0081.00056-.75883-1.81865-1.82033-3.31711-3.13561-4.59433-.00168-.00999-.00084-.01872-.00279-.0287l-.03436-.20594c-.11453-.04581-.21733-.09155-.3204-.12591l-.00335-.00126c-1.1548-1.04599-2.49466-1.935-4.00408-2.71583-7.58831-3.92537-14.60788-2.92449-22.78085-2.26539-5.07843.40951-11.51138.93314-12.97457-4.69161-1.4611-5.61609,2.02802-10.98754,5.21028-15.06446,3.50951-4.49607,2.33096-7.1862,2.64229-13.1377.62656-11.97648,12.34046-16.63031,14.42463-27.58336,1.05088-5.52279-.76791-11.05075-1.05968-16.52109-.32362-6.06974,1.196-9.25255,2.36868-14.61912.64486-2.95159-.13827-6.65182.17599-9.71473.41035-4.00003,2.06587-4.17476,2.95585-7.1216,1.11834-3.70302.05908-9.00806.05908-12.90271,0-4.42595,1.19949-11.56145-.8897-15.473-.85534-1.60111-3.1708-.27403-3.28142-3.23079-.05531-1.47381,1.48707-2.14681,1.99101-3.33995,4.69922-11.12721,8.01291-23.02814,10.41566-35.03681,1.96754-9.83421-3.6563-16.73415-8.67886-24.55711-3.00669-4.68316-3.48576-10.66309-7.06426-14.79979-2.93476-3.39267-6.11813-3.74625-6.41228-8.66314-2.34647-1.05423-3.04873-3.26592-4.52198-5.25916-7.88441-10.66623-17.39794-6.22875-24.93387,1.05074-1.73708,1.67807-5.04281,2.66897-6.3525,4.22155-1.44657,1.71481-1.45439,6.93779-1.47758,9.23531-.07347,7.32873.87434,16.12645,2.52539,22.95683,1.35662,5.61302-.22613,10.91401-.21886,17.07635.00978,8.16529.57977,16.55971.94655,24.42254.52963,11.35404-3.58856,20.96541-3.71426,31.92411-.12934,11.25564-1.11848,21.43743-2.7807,31.99604-1.71362,10.886-.44848,23.48339-.44848,34.65132,0,4.58441-.91009,10.79187.68746,14.93974,1.38581,3.59841,3.73815,7.40583,4.83512,11.54148.80255,3.02569,2.19688,9.33594.20364,12.21078-1.06848,1.54099-3.27863,1.79777-4.39907,3.17416-1.32994,1.63415-.87336,4.19885-1.8234,5.55673-.69905.99913-1.4861,1.88074-2.33613,2.67602-1.21891.67258-2.42678,1.37855-3.6461,1.98242-2.63168,1.29293-5.20609,2.79181-7.81485,4.24494h-.01145c-.00964.00545-.01927.01048-.02891.01592-.97825.36321-1.95609.7184-2.92093,1.07854-2.88895,1.07847-5.72161,1.8183-8.11235,4.01323-.02025.01564-.03883.02507-.05922.04113-.01145.01145-.03436.02291-.04567.03436-.01145.01138-.03436.02284-.05726.0572-.29736.22885-.61776.52628-.96107.88097-1.28553,1.34203-2.2047,3.01689-3.19511,4.59845-.71009.89697-1.54504,1.73171-2.58894,2.44857-2.05442-1.71285-4.19934-1.63366-6.41298-1.15445-.00237.00049-.00489.00126-.00712.00175-.21062-3.73626-2.00344-3.80295-4.33426-6.23951-1.56152-1.63233-4.16526-5.52188.51804-6.65049.54807-2.5705-2.34717-3.48597-3.15781-5.53731-.45812-1.15906.24694-2.80096.00908-4.03851-.37278-1.93884-1.64183-3.14483-2.04715-4.22329-2.30652-6.13797,5.1255-9.69769,3.7996-16.027-2.1878-.63781-3.77237-2.19702-5.87818-2.94929,1.6118-1.88185,3.84709-4.67876,6.35194-5.04155.4401-7.39703.72852-14.8486-1.88891-21.51417-1.4319-3.64617-3.96693-8.20705-4.53273-12.17733-.66679-4.67876,3.84499-8.87949,2.59103-12.83706-.78914-2.49082-4.51499-4.19061-5.25623-7.66743-.82755-3.88173.10936-7.09841,1.86502-10.34185,1.9241-3.55462,2.29758-4.36387,1.65468-9.12846-.35839-2.65682-2.63293-8.37815.95395-9.38224.81316-4.74042-3.20921-10.8367-4.45312-15.27746-1.38693-4.95133-2.87275-12.30506-.99529-17.45898.77238-2.12055,4.49991-4.75216,4.65215-6.87822.069-.96135-1.66543-2.70493-2.01601-3.65923-1.78723-4.86515-1.18692-9.73246-1.31751-14.94134.24945.78062.78076,1.73869,1.01806,2.61415-.12431-4.13174,1.27547-8.74471-4.12811-8.97035-.07207-1.06206.33186-2.61897.9316-3.55266,1.19754.11635,1.93975-.63243,3.08058-.59919,1.07854-4.34048-5.89327-8.25985-9.56032-8.82398-1.47003-5.01613,1.4164-9.10101-.97015-13.14664-1.66473-2.82191-5.27131-5.58389-8.19937-4.60159-3.36341,1.12826-6.1078,5.83942-8.85694,8.0745-3.49889,2.84481-6.20012,5.38738-8.92747,9.2131-2.52539,3.54233-5.13318,5.95339-5.85835,9.90922-.95214,5.19379,1.61334,10.47712-1.74267,14.76948-2.9437,3.7651-4.19864,3.10034-4.7157,8.6607-.22696,2.44088-1.02742,5.16796-.12487,7.50423.62307,1.6125,2.49941.16104,2.92568,2.19646.04944.23597-1.76502,2.97073-1.87662,3.6806-.18967,1.20717.26817,3.32675.4598,4.61151.49709,3.33548.95563,6.39685.90032,9.98715,1.10116-.89669,1.54895-.27089,2.72037-.69116,2.44075,12.18711,1.17673,24.61654,4.10674,36.7211,1.18343,4.88938,4.11526,8.76036,4.72799,13.49226.70757,5.46427.4739,11.19775.46133,16.74596-.02444,10.80849.22347,23.33408,6.90895,32.17859,4.25074,5.62335,6.63855,10.5957,9.35109,17.05379,2.24632,5.34827,3.5028,10.67629,5.51518,16.13203.80674,2.18689,3.0958,3.91811,3.56216,6.23099.41384,2.05358-1.2481,4.65397-.10084,6.36319,1.00619,1.49881,4.88177.46371,4.77059,3.33708-.09581,2.47266-3.17793,2.34849-5.02493,2.1313.05098,2.17977,1.83541,3.14957,4.00911,2.76785-.00698.1028-.02598,1.16939-.01075,1.23706-.16733.11614-.34415.216-.52181.31342-.99278.20497-1.98556.33039-3.0127.30762-.11146.14498-.22347.27885-.34568.41266-.65128-.04728-1.29796-.18772-1.90832-.44771-1.7977,2.05574-4.31024,4.28056-5.28472,6.8887h-.00126c-.98412.78949-1.94519,1.56752-2.86046,2.34556-1.2129,1.02979-2.58586,2.82617-3.73005,3.64994-.14889.11439-.2975.20594-.43493.28605-.00335.00223-.00615.00342-.00964.00559.16481-3.03358.04539-6.37569-1.97955-7.82149-1.5002-1.07113-6.15347-.56231-8.06081-.87748-6.11464-1.01038-15.69354-.30672-20.90228-3.86937-4.04612-2.76744-4.82325-7.56875-7.82058-11.47702-3.85561-5.02766-6.40195-10.82923-8.78752-16.68485-2.99258-7.34535-4.24152-15.49409-7.22377-22.69579-.42781-.1123-.81847-.00049-1.23706-.14693-.39261-7.8659,1.44852-16.48275-2.13864-23.68871-2.5124-5.04679-4.06986-9.75111-5.86296-15.12152-1.09139-3.26969-3.76636-5.31461-4.86752-8.16487-.9756-2.52539-.99948-5.71134-1.4833-8.38234-1.55607-8.59387-4.29432-17.09583-6.4641-25.30414-1.40634-5.31992-5.54465-8.9318-11.00172-8.83473-3.0898-13.34539-17.41554-21.66041-30.45897-15.08541-.27962,5.13143.32529,9.5819-2.35359,14.21526-3.48423,6.02595-7.39053,6.68296-4.41164,13.40441,2.91577,6.57961,1.22826,14.13419,2.54536,21.22038.61651,3.31746,2.1797,4.72736,4.60075,7.27091,2.71129,2.8483,2.9085,4.56444,4.52114,7.86297,2.45946,5.0301,7.78133,6.34831,7.55674,13.42319,9.30891-.55701,9.82304,11.65273,12.39019,17.81758.92392,2.21881,3.35657,5.864,5.41378,7.13927,2.10093,1.30229,3.02373,1.26283,6.04313,1.44294.50812,2.16636-.92811,3.89472-2.1892,5.39792,6.16311-.45435,5.03122,2.26734,6.74973,6.15717,1.0925,2.47287,3.31075,4.93282,4.7354,7.31448,1.32603,2.2165,2.70654,7.4566,4.56919,9.00303,2.68489,2.22886,7.14402.70373,10.24429,3.12318,2.71268,2.11706,5.57859,7.08361,5.09281,10.74158,5.67971.6031,8.62229,4.96376,10.07752,9.86152.37599,1.26577-.52055,2.67448.43005,3.85896,1.0337,1.28818,2.11489.06523,3.22262.9668,2.77819,2.26099,2.26616,2.12809,3.2648,5.54849,1.04083,3.56461,2.18473,6.66376,4.97395,9.46807,1.76655,1.77591,3.78731,5.16865,5.66253,7.33704-.00056.00063-.00112.0014-.00168.00203-.70925.80094-1.53317,1.44168-2.74593,1.84219h-.01145c-.09162-.01145-.19456-.03436-.28605-.04581,0,.0572-.01145.10301-.02291.14875-.90395.26314-2.00232.40051-3.40964.40051-3.08924-.01145-4.55382-.3204-6.46466,1.38442-.53787.48054-.66358,1.08699-.70939,1.69337-3.10069,1.22428-4.31359,3.45545-7.15114,7.68894-.73229,1.08699-1.78499.595-2.31127,1.43023-.98398,1.56752-.86959,3.61559-1.77354,5.22892-1.10982,1.97941-2.11657-.3204-2.81464,2.97485-.45756,2.10533,2.51715,8.11228,3.46691,10.35484.99543,2.36847,3.18086,6.22435,2.99775,8.73012-.1602,2.03668-2.59732,2.08242-2.21979,4.74838.06872-.2403.21747-.35469.44639-.33179.68634,2.9062,1.87634,5.85821,3.07778,8.14657-1.68191,1.12128-3.40964,3.81008-4.55382,5.72091-1.72773,2.88329-4.0619,4.69112-5.73236,7.08249-3.19231,4.53092-3.40964,13.98187-9.42805,15.96129.24023.50344.27459,1.14418.45756,1.68198,3.24958-.18311,4.22211,5.22892,5.76672,7.72323,1.10982,1.78492,2.24255,3.1465,3.37528,4.79413,3.58144,5.19456-.45756,6.94519-2.19674,12.52881-1.40732,4.51946.09162,12.0482,2.25401,16.32743,1.35006,2.65451,4.58818,5.65226,3.78731,9.17636-.46915,2.10533-3.92461,4.43943-5.24044,6.25871.82378,2.08235,1.67046,4.63392,4.17629,5.1602.04581,2.62022,1.13273,6.5905-2.66589,5.98412-.33186,5.8925-2.81464,14.30228-.54919,19.78289.96107,2.32272,3.31802,4.73693,4.62254,6.93374,2.36826,4.00464,2.15093,5.52642,2.74593,10.18325,1.27003,9.90859,7.483,16.23595,12.36868,23.81043,7.10533,11.01848,16.97963,9.37086,28.16962,11.64777,10.00014,2.03661,20.83565.61783,29.13098-4.05045,3.36397-1.89931,4.96571-1.83066,6.37303-5.98405,1.68191-4.95433,1.24726-11.63631.60645-16.64784,3.84458-.14875,4.98876-1.48742,8.73012-.54919,3.19231.81232,5.72091,2.94056,8.29532,5.14882,3.13505,2.6888,6.91091,4.25632,9.85139,6.45314,3.6042,2.70032,4.039,4.54244,6.31591,7.91779.84668-1.70482.17166-4.039.04581-6.06422,3.34092.40051,5.61783,1.57898,8.87887,2.94056,3.90156,1.63617,8.2037,2.10533,12.71185,2.11678-.33186,3.97028-5.64088,5.62936-4.5196,9.4967,8.67299-4.95433,12.21993,11.80797,19.72569,11.48757,2.46016-.10294,4.39376-4.47372,6.02986-4.42798,2.67749.09155,1.77354,1.75063,3.71859,2.86046,2.59732,1.48742,4.70271,2.10533,6.93381,3.6042,1.17854.78949,1.95651,2.18536,4.50801,2.72316.4577-3.08931,6.14439-1.86502,8.67299-1.72773-.10308.67503.37753,1.86502.22878,2.63161,3.43255.54919,6.15571-.78949,9.2793-1.89931,7.23117-2.54012,13.50141-6.54476,20.43508-9.56542,8.16948-3.58123,16.01855-11.51047,21.11011-18.84465,8.21543-11.80797,20.9615-20.64102,32.16309-29.38259,4.61109-3.59275,12.62036-10.94983,14.61123-16.45335,2.10526-5.77811,2.78028-9.77129,7.98637-13.86748,4.71403-3.73005,15.12606-8.34113,20.95004-9.50815,4.69098-.93824,6.79638-1.43023,10.67503-3.27234,3.46691-1.64763,6.53352-2.17397,10.34345-2.32272,12.4374-.46908,26.14468-5.22892,35.29814-13.66154,9.7141-8.97035,20.81261-16.41899,30.65269-25.11482,4.38203-3.86734,9.48504-7.58593,11.06415-13.58144,1.84226-6.97948.4003-8.71866-4.94295-12.79195Zm-221.21617-45.24094c.85814-.50344,2.01377-.40051,2.91772-.78949,1.65901-.69793,3.50113-1.12135,5.45763-.84668.38912,7.72323-1.16695,23.43283-12.76897,18.76455.30895-2.3913-1.6361-3.53548-3.69569-3.55839-.42348,3.24951,1.86488,6.2701,1.70482,10.02305-2.28836.18304-4.14193-1.95658-4.62254-4.02754-3.32947.85814-.69793,4.49663-1.30424,7.0482-.58354,2.51715-2.83769,3.97028-4.32504,6.0527-2.96353,4.13048-4.88568,7.91772-7.68887,11.25871-3.7415-6.06415-4.62254-13.26103-6.85378-19.70279,3.98187.85814,3.59275-2.44857,4.039-5.09163-1.65915.19449-2.99775-.28605-3.62711-.99543.09162-1.17847.58354-2.08242.98412-3.16941,4.6224-1.48742,6.60195-.97253,10.21747-4.55382,2.32272-2.29982,3.18086-7.81478,5.73236-8.82167,1.44168,1.25864,2.44857,2.65451,2.9863,4.47379,2.74607.60638,2.6888-1.33867,4.64531-2.11671,1.65915-.66365,4.05045-.57209,5.5494-1.36158.92685-.49206-.25169-2.04813.65212-2.58586Zm71.25971,126.61518c-2.11671,5.22892-1.7734,11.65922-3.84444,16.91105-1.32729.22878-2.54005-.10301-3.53562-.92678-.58354-9.56542-.58354-17.73483-12.00246-17.97513-.34317-6.47604-.22878-12.52881,6.38463-14.69133-1.48749.7552-.41203.90395.38898.9955.21747.35469.1602,1.30431.14875,1.70482.3204.28605.96121-.19456,1.24726.1373-.06872.60638.03422,1.55607.13716,2.15107,1.40732.81232,3.35252.33179,4.54237.98398,1.12142.61783,2.21979,2.66596,2.55164,2.81471,2.849,1.25857,7.19681.32033,10.32041.52628-1.57884,2.58586-2.76883,7.08249-6.33867,7.36854Z"/>
</svg>