<svg xmlns="http://www.w3.org/2000/svg" width="264.567" height="318.552" viewBox="1110.4 -4.3 508.8 558.6"><path d="M1599.015 367.97c-4.691-3.593-7.86-8.742-11.534-13.227-3.42-4.188-7.643-6.304-12.334-9.268-4.44-2.803-7.38-3.432-12.689-3.673-6.316-.286-11.076 1.27-17.06 1.82-4.874.457-7.62 1.51-11.762 4.142-5.263 3.34-6.888 8.73-14.005 8.386.31 4.463-10.526 8.342-13.352 11.442-3.513 3.833-6.59 13.422-12.94 13.01.583 3.936-1.683 4.496-3.537 6.865-1.04 1.327-3.054 3.741-4.164 5.984-2.334 4.702-1.682 9.657-8.044 10.606-5.206.778-10.938.824-15.927 2.3-3.616 1.064-8.078 8.467-12.334 5.652-2.54-1.67-.927-4.473-1.717-7.048-.64-2.128-2.39-4.062-3.249-5.972-.664-1.122-1.396-2.06-2.208-2.85-.778-4.038-1.522-8.123-4.188-10.823-1.705-1.717-4.119-1.51-5.149-3.833-.96-2.174.275-6.385.035-8.788-.447-4.496-1.717-6.762-5.092-9.36-1.293-.983-3.753-1.773-4.497-3.203-1.9-3.65 1.373-8.833 3.467-11.568 5.996-7.86 7.529-21.716 7.037-31.888-.515-10.595-2.208-23.559.057-34.096 1.201-5.596 4.474-11.625 8.238-14.955 3.788-3.364 6.465-11.465 11.454-13.112.308-5.572.96-10.138 3.031-15.355 1.374-3.444 5.035-6.5 6.19-9.543.813-2.128.023-5.846.15-8.17 6.166.653 5.068-6.018 7.3-10.125 3.146-5.778 3.398-10.16 4.725-16.854 1.293-6.51 1.773-13.284 3.02-19.714 1.167-5.973 4.714-12.724 6.934-18.65 2.002-5.355 6.465-11.099 7.014-16.74.515-5.274-1.339-10.744-.595-16.362 1.705-12.803 2.448-26.568-12.838-30.343-4.176-1.03-6.213-1.133-10 .137-2.666.915-6.419 2.769-7.094-1.888-2.769-.275-4.13 3.25-6.762 4.153-2.746 7.884-6.178 15.939-7.46 24.143-1.339 8.455-1.224 16.339-1.945 25.206-.984-.48-1.58-.172-2.597-.458.057 2.678 2.597 3.055 3.192 4.978.423 1.418-.56 5.137-1.076 6.373-1.956 4.702-8.158 10.389-12.792 12.242 3.925 2.403.607 8.021-3.192 7.792 4.543 2.38.538 7.724-1.99 9.943-4.486 3.936-2.724 3.582-1.294 8.89 1.202 4.497-.377 7.998-2.197 12.095-1.888 4.256-5.595 5.79-7.025 9.565-.778 2.048-.023 3.913-1.121 6.007-1.545 2.918-5.023 5.767-8.021 7.002-.71 3.536-1.9 7.437-2.838 10.996-.743 2.849-2.791 9.245-6.395 9.29-.424 5.744 8.821.767 4.656 7.403-1.075 1.717-3.135 2.712-5.309 2.964h-.008a13.6 13.6 0 0 0-3.135-4.594l-.003-.029-.034-.205c-.115-.046-.218-.092-.32-.126l-.004-.002c-1.155-1.046-2.495-1.935-4.004-2.715-7.589-3.926-14.608-2.925-22.781-2.266-5.079.41-11.511.933-12.975-4.691-1.46-5.617 2.028-10.988 5.21-15.065 3.51-4.496 2.332-7.186 2.643-13.138.626-11.976 12.34-16.63 14.425-27.583 1.05-5.523-.768-11.05-1.06-16.521-.324-6.07 1.196-9.253 2.369-14.62.644-2.95-.139-6.651.176-9.714.41-4 2.065-4.175 2.955-7.122 1.119-3.703.06-9.008.06-12.902 0-4.426 1.199-11.562-.89-15.473-.856-1.601-3.171-.274-3.282-3.231-.055-1.474 1.487-2.147 1.991-3.34 4.7-11.127 8.013-23.028 10.416-35.037 1.968-9.834-3.656-16.734-8.679-24.557-3.007-4.683-3.486-10.663-7.064-14.8-2.935-3.392-6.118-3.746-6.412-8.663-2.347-1.054-3.05-3.266-4.522-5.259-7.885-10.666-17.398-6.229-24.934 1.05-1.737 1.679-5.043 2.67-6.353 4.222-1.446 1.715-1.454 6.938-1.477 9.236-.074 7.328.874 16.126 2.525 22.956 1.357 5.613-.226 10.914-.219 17.077.01 8.165.58 16.56.947 24.422.53 11.354-3.589 20.966-3.715 31.924-.129 11.256-1.118 21.438-2.78 31.996-1.714 10.886-.449 23.484-.449 34.652 0 4.584-.91 10.792.688 14.94 1.386 3.598 3.738 7.405 4.835 11.541.802 3.026 2.197 9.336.204 12.21-1.069 1.542-3.28 1.799-4.4 3.175-1.33 1.634-.873 4.199-1.823 5.557a17 17 0 0 1-2.336 2.676c-1.219.672-2.427 1.378-3.646 1.982-2.632 1.293-5.206 2.792-7.815 4.245h-.011l-.03.016c-.978.363-1.955.718-2.92 1.079-2.89 1.078-5.722 1.818-8.113 4.013-.02.015-.038.025-.059.04-.011.012-.034.024-.046.035s-.034.023-.057.057a9 9 0 0 0-.96.881c-1.286 1.342-2.206 3.017-3.196 4.599a11.8 11.8 0 0 1-2.589 2.448c-2.054-1.712-4.2-1.633-6.413-1.154l-.007.002c-.21-3.737-2.003-3.803-4.334-6.24-1.562-1.632-4.166-5.522.518-6.65.548-2.57-2.347-3.486-3.158-5.538-.458-1.159.247-2.8.009-4.038-.373-1.939-1.642-3.145-2.047-4.223-2.307-6.138 5.125-9.698 3.8-16.027-2.188-.638-3.773-2.197-5.879-2.95 1.612-1.882 3.847-4.678 6.352-5.041.44-7.397.729-14.849-1.889-21.514-1.432-3.647-3.967-8.207-4.532-12.178-.667-4.678 3.845-8.88 2.59-12.837-.789-2.49-4.514-4.19-5.256-7.667-.827-3.882.11-7.099 1.865-10.342 1.925-3.555 2.298-4.364 1.655-9.129-.358-2.656-2.633-8.378.954-9.382.813-4.74-3.21-10.836-4.453-15.277-1.387-4.952-2.873-12.305-.995-17.46.772-2.12 4.5-4.751 4.652-6.877.069-.962-1.666-2.705-2.016-3.66-1.787-4.865-1.187-9.732-1.318-14.941.25.78.781 1.739 1.018 2.614-.124-4.132 1.276-8.745-4.128-8.97-.072-1.062.332-2.62.932-3.553 1.197.117 1.94-.632 3.08-.599 1.079-4.34-5.893-8.26-9.56-8.824-1.47-5.016 1.416-9.101-.97-13.147-1.665-2.822-5.271-5.584-8.2-4.601-3.363 1.128-6.107 5.84-8.856 8.074-3.5 2.845-6.2 5.388-8.928 9.213-2.525 3.543-5.133 5.954-5.858 9.91-.952 5.193 1.613 10.477-1.743 14.77-2.944 3.764-4.199 3.1-4.716 8.66-.227 2.44-1.027 5.168-.124 7.504.623 1.612 2.499.161 2.925 2.196.05.236-1.765 2.971-1.876 3.681-.19 1.207.268 3.327.46 4.612.496 3.335.955 6.396.9 9.987 1.1-.897 1.549-.271 2.72-.691 2.44 12.187 1.177 24.616 4.107 36.72 1.183 4.89 4.115 8.761 4.728 13.493.707 5.464.474 11.198.461 16.746-.024 10.808.224 23.334 6.91 32.178 4.25 5.624 6.638 10.596 9.35 17.054 2.247 5.349 3.503 10.677 5.515 16.132.807 2.187 3.096 3.918 3.563 6.231.413 2.054-1.249 4.654-.101 6.363 1.006 1.5 4.881.464 4.77 3.338-.096 2.472-3.178 2.348-5.025 2.13.051 2.18 1.836 3.15 4.01 2.769-.008.102-.027 1.17-.011 1.237a6 6 0 0 1-.522.313c-.993.205-1.986.33-3.013.308a6 6 0 0 1-.345.412 6 6 0 0 1-1.909-.447c-1.797 2.055-4.31 4.28-5.285 6.888a131 131 0 0 0-2.861 2.346c-1.213 1.03-2.586 2.826-3.73 3.65a4 4 0 0 1-.435.286l-.01.006c.165-3.034.046-6.376-1.98-7.822-1.5-1.071-6.153-.562-8.06-.877-6.115-1.01-15.694-.307-20.902-3.87-4.047-2.767-4.824-7.569-7.821-11.477-3.856-5.027-6.402-10.829-8.788-16.685-2.992-7.345-4.241-15.494-7.223-22.695-.428-.113-.819 0-1.237-.147-.393-7.866 1.448-16.483-2.14-23.69-2.511-5.046-4.069-9.75-5.862-15.12-1.091-3.27-3.766-5.315-4.868-8.165-.975-2.526-.999-5.712-1.483-8.383-1.556-8.594-4.294-17.096-6.464-25.304-1.406-5.32-5.545-8.932-11.002-8.835-3.09-13.345-17.415-21.66-30.459-15.085-.28 5.131.326 9.582-2.353 14.215-3.484 6.026-7.39 6.683-4.412 13.405 2.916 6.58 1.228 14.134 2.545 21.22.617 3.317 2.18 4.727 4.601 7.27 2.712 2.85 2.909 4.565 4.521 7.864 2.46 5.03 7.782 6.348 7.557 13.423 9.309-.557 9.823 11.653 12.39 17.818.924 2.218 3.357 5.864 5.414 7.139 2.101 1.302 3.024 1.263 6.043 1.443.508 2.166-.928 3.895-2.189 5.398 6.163-.455 5.031 2.267 6.75 6.157 1.092 2.473 3.31 4.933 4.735 7.314 1.326 2.217 2.707 7.457 4.57 9.003 2.684 2.23 7.143.704 10.244 3.124 2.712 2.117 5.578 7.083 5.092 10.741 5.68.603 8.623 4.964 10.078 9.862.376 1.265-.52 2.674.43 3.859 1.034 1.288 2.115.065 3.223.966 2.778 2.261 2.266 2.129 3.264 5.549 1.041 3.565 2.185 6.664 4.974 9.468 1.767 1.776 3.788 5.169 5.663 7.337l-.002.002c-.709.801-1.533 1.442-2.746 1.842h-.011c-.092-.011-.195-.034-.286-.046a.6.6 0 0 1-.023.15c-.904.262-2.002.4-3.41.4-3.089-.012-4.554-.32-6.464 1.384-.538.48-.664 1.087-.71 1.694-3.1 1.224-4.313 3.455-7.15 7.688-.733 1.087-1.786.595-2.312 1.43-.984 1.568-.87 3.616-1.774 5.23-1.11 1.979-2.116-.32-2.814 2.974-.458 2.106 2.517 8.113 3.467 10.355.995 2.369 3.18 6.225 2.997 8.73-.16 2.037-2.597 2.083-2.22 4.749.07-.24.218-.355.447-.332.686 2.906 1.876 5.858 3.078 8.147-1.682 1.12-3.41 3.81-4.554 5.72-1.728 2.884-4.062 4.692-5.733 7.083-3.192 4.53-3.41 13.982-9.428 15.961.24.504.275 1.144.458 1.682 3.25-.183 4.222 5.23 5.767 7.724 1.11 1.784 2.242 3.146 3.375 4.794 3.581 5.194-.458 6.945-2.197 12.528-1.407 4.52.092 12.049 2.254 16.328 1.35 2.654 4.588 5.652 3.788 9.176-.47 2.106-3.925 4.44-5.24 6.259.823 2.082 1.67 4.634 4.175 5.16.046 2.62 1.133 6.59-2.665 5.984-.332 5.893-2.815 14.303-.55 19.783.961 2.323 3.318 4.737 4.623 6.934 2.368 4.005 2.15 5.526 2.746 10.183 1.27 9.909 7.483 16.236 12.368 23.81 7.106 11.02 16.98 9.371 28.17 11.648 10 2.037 20.836.618 29.131-4.05 3.364-1.9 4.966-1.83 6.373-5.984 1.682-4.954 1.247-11.636.607-16.648 3.844-.149 4.988-1.487 8.73-.55 3.192.813 5.72 2.941 8.295 5.15 3.135 2.688 6.91 4.256 9.851 6.453 3.605 2.7 4.04 4.542 6.316 7.918.847-1.705.172-4.04.046-6.065 3.341.4 5.618 1.58 8.879 2.94 3.902 1.637 8.204 2.106 12.712 2.118-.332 3.97-5.641 5.629-4.52 9.496 8.673-4.954 12.22 11.808 19.726 11.488 2.46-.103 4.394-4.474 6.03-4.428 2.677.092 1.773 1.75 3.718 2.86 2.598 1.488 4.703 2.106 6.934 3.605 1.179.79 1.957 2.185 4.508 2.723.458-3.09 6.145-1.865 8.673-1.728-.103.675.378 1.865.229 2.632 3.433.549 6.156-.79 9.28-1.9 7.23-2.54 13.5-6.544 20.434-9.565 8.17-3.581 16.019-11.51 21.11-18.845 8.216-11.808 20.962-20.64 32.164-29.382 4.61-3.593 12.62-10.95 14.61-16.454 2.106-5.778 2.781-9.77 7.987-13.867 4.714-3.73 15.126-8.341 20.95-9.508 4.691-.939 6.797-1.43 10.675-3.273 3.467-1.647 6.534-2.174 10.344-2.322 12.437-.47 26.144-5.23 35.298-13.662 9.714-8.97 20.812-16.419 30.653-25.115 4.382-3.867 9.485-7.586 11.064-13.581 1.842-6.98.4-8.719-4.943-12.792m-221.217-45.241c.859-.504 2.014-.4 2.918-.79 1.66-.698 3.501-1.12 5.458-.846.389 7.723-1.167 23.433-12.77 18.764.31-2.391-1.635-3.535-3.695-3.558-.423 3.25 1.865 6.27 1.705 10.023-2.288.183-4.142-1.957-4.623-4.028-3.329.859-.697 4.497-1.304 7.049-.583 2.517-2.837 3.97-4.325 6.052-2.963 4.13-4.886 7.918-7.689 11.259-3.741-6.064-4.622-13.261-6.853-19.703 3.981.858 3.592-2.448 4.039-5.091-1.66.194-2.998-.286-3.628-.996.092-1.178.584-2.082.985-3.17 4.622-1.487 6.601-.972 10.217-4.553 2.323-2.3 3.18-7.815 5.732-8.822 1.442 1.259 2.449 2.655 2.987 4.474 2.746.606 2.688-1.339 4.645-2.117 1.66-.663 4.05-.572 5.55-1.361.926-.492-.252-2.048.651-2.586m71.26 126.615c-2.117 5.229-1.773 11.66-3.844 16.911-1.328.229-2.54-.103-3.536-.927-.583-9.565-.583-17.734-12.002-17.975-.344-6.476-.23-12.529 6.384-14.691-1.487.755-.412.904.39.995.217.355.16 1.305.148 1.705.32.286.961-.194 1.247.138-.068.606.035 1.556.137 2.15 1.408.813 3.353.332 4.543.985 1.121.617 2.22 2.666 2.551 2.814 2.85 1.259 7.197.32 10.32.527-1.578 2.585-2.768 7.082-6.338 7.368" style="fill:#fff"/></svg>